name C:\Users\tom_v\My Drive\PostDoc\MusculoskeletalSpecialization\ResultsSprinting\Case_1\motion.mot
datacolumns 32
datarows 7
range 0.24899233 0.27887141
endheader 
time	pelvis_tilt	pelvis_list	pelvis_rotation	pelvis_tx	pelvis_ty	pelvis_tz	hip_flexion_r	hip_adduction_r	hip_rotation_r	knee_angle_r	ankle_angle_r	subtalar_angle_r	mtp_angle_r	hip_flexion_l	hip_adduction_l	hip_rotation_l	knee_angle_l	ankle_angle_l	subtalar_angle_l	mtp_angle_l	lumbar_extension	lumbar_bending	lumbar_rotation	arm_flex_r	arm_add_r	arm_rot_r	elbow_flex_r	arm_flex_l	arm_add_l	arm_rot_l	elbow_flex_l	
          0.24899233	         -6.60846952	          4.32631679	        -11.95059694	          2.01186357	          0.95341600	          0.01700522	         15.44022228	         -7.30256954	          3.20997558	        -64.15803905	         -3.37132162	         13.22731698	         -2.75004503	         26.53329721	          5.17425825	         -9.99971166	         -1.03750158	         -5.19929648	        -27.06601960	          1.92133847	        -12.26989915	         -9.78954856	          6.97666487	          7.93730937	        -11.87236518	         -2.70648136	         60.85287788	        -17.44136090	         -1.75930835	        -12.60711096	         15.33648712	
          0.25397218	         -7.06124590	          3.72995627	        -10.55246115	          2.05251514	          0.95096275	          0.01779043	         17.34509977	         -6.17906428	          2.58553391	        -65.26774589	         -2.99349670	         12.52954191	         -3.51147480	         25.00081685	          5.32844729	         -9.73189733	         -0.67198101	         -6.89413143	        -25.58572525	          3.59397900	        -11.45557461	         -9.14284528	          5.62517130	         12.14246735	        -10.67748017	          4.23407083	         42.57899511	         -9.15597925	         -4.70019142	        -13.07929645	          7.62240523	
          0.25895203	         -7.53520851	          3.01634260	         -9.10394348	          2.09320453	          0.94757960	          0.01859856	         19.36358476	         -5.01279603	          1.86040818	        -66.45776673	         -3.00356761	         11.64247033	          0.57065343	         23.49387934	          5.30797457	         -8.96384938	         -0.48843047	         -8.58425825	        -25.61740685	          4.87676552	        -10.60540514	         -8.39929420	          4.44199769	         16.22857044	         -8.86947254	         12.82922756	         23.80070409	         -1.46797262	         -7.92942164	        -12.02859868	          1.64686354	
          0.26393187	         -8.12049177	          2.19624177	         -7.63577758	          2.13408409	          0.94309822	          0.01935739	         21.56778298	         -3.83417735	          1.06215812	        -67.74168365	         -1.56535414	         11.35409419	          2.41010709	         22.09677406	          5.10191216	         -7.94693470	         -0.45476157	        -10.50931356	        -26.70760359	          5.90503418	         -9.65153053	         -7.54490319	          3.46883980	         18.26993658	         -6.35364099	         18.93818555	          8.51683432	          4.74317710	        -11.12784802	        -11.72711565	          0.08290779	
          0.26891172	         -8.79644895	          1.24382024	         -6.17864958	          2.17530697	          0.93781824	          0.01999943	         23.91436293	         -2.64878324	          0.16866893	        -69.00364404	          0.70727682	         11.29374480	         -0.50418221	         20.77145482	          4.68524982	         -6.96739606	         -0.69428805	        -13.49474296	        -27.92136240	          7.17680521	         -8.61965650	         -6.59133283	          2.67480889	         17.31623384	         -4.69075970	         18.35437894	          0.47985760	          8.79580290	        -14.11943844	        -12.96880190	          4.67837545	
          0.27389157	         -9.48184539	          0.56332436	         -4.53524893	          2.21669480	          0.93254143	          0.02004054	         26.37771368	         -2.04875937	         -0.91048663	        -70.19392700	          2.31916474	         10.99383169	         -4.66164044	         19.62151424	          4.62270408	         -4.68864554	         -2.46192062	        -11.32953394	        -28.51777152	          7.63425018	         -7.63738093	         -6.02259288	          1.74604555	         13.25689499	         -4.75648890	         11.16873771	          1.43076327	         10.39749318	        -16.97641031	        -12.79753866	         15.98009067	
          0.27887141	         -9.94242292	          0.61248717	         -2.61183674	          2.25801290	          0.92827061	          0.01907256	         28.73590389	         -2.61857171	         -2.00462218	        -71.33180061	          1.94874630	         10.48857390	          1.47664659	         18.18453557	          5.66751409	         -0.24759190	         -4.33715972	         -7.44566803	        -31.88649014	          9.90965360	         -7.07367506	         -6.33231771	          0.55055761	          5.63649761	         -5.54704628	          0.07510240	         11.74319681	         10.22226983	        -20.49932877	         -9.58340953	         32.62552169	
